<svg width="15" height="22" viewBox="0 0 15 22" fill="none" xmlns="http://www.w3.org/2000/svg">
<g clip-path="url(#clip0_7_69)">
<path d="M12.3985 2.67138C12.629 2.13161 12.4571 1.50122 11.9845 1.15451C11.5118 0.807797 10.8673 0.839316 10.4259 1.22543L0.425868 10.0509C0.0352426 10.3976 -0.101476 10.9531 0.0782114 11.4456C0.257899 11.9381 0.730555 12.2612 1.25009 12.2612H5.60556L2.60165 19.3294C2.37118 19.8692 2.54305 20.4995 3.01571 20.8463C3.48837 21.193 4.1329 21.1614 4.57431 20.7753L14.5743 11.9499C14.9649 11.6032 15.1056 11.0477 14.922 10.5591C14.7384 10.0706 14.2735 9.74355 13.7501 9.74355H9.39462L12.3985 2.67138Z" fill="#F05353"/>
</g>
<defs>
<clipPath id="clip0_7_69">
<rect width="15" height="20.1724" fill="white" transform="translate(0 0.913818)"/>
</clipPath>
</defs>
</svg>
