<svg width="15" height="16" viewBox="0 0 15 16" fill="none" xmlns="http://www.w3.org/2000/svg">
<g clip-path="url(#clip0_7_76)">
<path d="M5.39062 0.5C6.2959 0.5 7.03125 1.23535 7.03125 2.14062V13.8594C7.03125 14.7646 6.2959 15.5 5.39062 15.5C4.54395 15.5 3.84668 14.8584 3.75879 14.0322C3.60645 14.0732 3.44531 14.0938 3.28125 14.0938C2.24707 14.0938 1.40625 13.2529 1.40625 12.2188C1.40625 12.002 1.44434 11.791 1.51172 11.5977C0.626953 11.2637 0 10.4082 0 9.40625C0 8.47168 0.547852 7.66309 1.3418 7.28809C1.08691 6.96875 0.9375 6.56445 0.9375 6.125C0.9375 5.22559 1.57031 4.47559 2.41406 4.29102C2.36719 4.12988 2.34375 3.95703 2.34375 3.78125C2.34375 2.90527 2.94727 2.16699 3.75879 1.96191C3.84668 1.1416 4.54395 0.5 5.39062 0.5ZM9.60938 0.5C10.4561 0.5 11.1504 1.1416 11.2412 1.96191C12.0557 2.16699 12.6562 2.90234 12.6562 3.78125C12.6562 3.95703 12.6328 4.12988 12.5859 4.29102C13.4297 4.47266 14.0625 5.22559 14.0625 6.125C14.0625 6.56445 13.9131 6.96875 13.6582 7.28809C14.4521 7.66309 15 8.47168 15 9.40625C15 10.4082 14.373 11.2637 13.4883 11.5977C13.5557 11.791 13.5938 12.002 13.5938 12.2188C13.5938 13.2529 12.7529 14.0938 11.7188 14.0938C11.5547 14.0938 11.3936 14.0732 11.2412 14.0322C11.1533 14.8584 10.4561 15.5 9.60938 15.5C8.7041 15.5 7.96875 14.7646 7.96875 13.8594V2.14062C7.96875 1.23535 8.7041 0.5 9.60938 0.5Z" fill="#DBBD53"/>
</g>
<defs>
<clipPath id="clip0_7_76">
<rect width="15" height="15" fill="white" transform="translate(0 0.5)"/>
</clipPath>
</defs>
</svg>
