<svg width="15" height="16" viewBox="0 0 15 16" fill="none" xmlns="http://www.w3.org/2000/svg">
<g clip-path="url(#clip0_7_82)">
<path d="M4.92773 11.8389C4.48828 11.6807 3.99902 11.748 3.62109 12.0264C3.38086 12.2021 2.96777 12.46 2.4668 12.6914C2.63086 12.2607 2.75684 11.7744 2.79785 11.2441C2.82715 10.8662 2.70117 10.4912 2.45215 10.2041C1.76953 9.43359 1.40625 8.53125 1.40625 7.59375C1.40625 5.26465 3.84668 2.90625 7.5 2.90625C11.1533 2.90625 13.5938 5.26465 13.5938 7.59375C13.5938 9.92285 11.1533 12.2812 7.5 12.2812C6.57422 12.2812 5.7041 12.1201 4.92773 11.8389ZM0.770508 12.9785C0.723633 13.0576 0.673828 13.1367 0.621094 13.2158L0.612305 13.2305C0.56543 13.2979 0.518555 13.3652 0.47168 13.4326C0.369141 13.5703 0.257812 13.7051 0.140625 13.8281C0.00585938 13.9629 -0.0322266 14.1621 0.0410156 14.3379C0.114258 14.5137 0.28418 14.6279 0.474609 14.6279C0.624023 14.6279 0.773438 14.6191 0.922852 14.6045L0.943359 14.6016C1.07227 14.5869 1.20117 14.5693 1.33008 14.5459C1.35352 14.543 1.37695 14.5371 1.40039 14.5312C1.92188 14.4287 2.42285 14.2529 2.86816 14.0596C3.53906 13.7666 4.11035 13.418 4.45898 13.1631C5.39062 13.5 6.42187 13.6875 7.50879 13.6875C11.6514 13.6875 15.0088 10.96 15.0088 7.59375C15.0088 4.22754 11.6426 1.5 7.5 1.5C3.35742 1.5 0 4.22754 0 7.59375C0 8.91504 0.518555 10.1367 1.39746 11.1357C1.3418 11.8535 1.06348 12.4922 0.770508 12.9785ZM4.21875 8.53125C4.46739 8.53125 4.70585 8.43248 4.88166 8.25666C5.05748 8.08085 5.15625 7.84239 5.15625 7.59375C5.15625 7.34511 5.05748 7.10665 4.88166 6.93084C4.70585 6.75502 4.46739 6.65625 4.21875 6.65625C3.97011 6.65625 3.73165 6.75502 3.55584 6.93084C3.38002 7.10665 3.28125 7.34511 3.28125 7.59375C3.28125 7.84239 3.38002 8.08085 3.55584 8.25666C3.73165 8.43248 3.97011 8.53125 4.21875 8.53125ZM8.4375 7.59375C8.4375 7.34511 8.33873 7.10665 8.16291 6.93084C7.9871 6.75502 7.74864 6.65625 7.5 6.65625C7.25136 6.65625 7.0129 6.75502 6.83709 6.93084C6.66127 7.10665 6.5625 7.34511 6.5625 7.59375C6.5625 7.84239 6.66127 8.08085 6.83709 8.25666C7.0129 8.43248 7.25136 8.53125 7.5 8.53125C7.74864 8.53125 7.9871 8.43248 8.16291 8.25666C8.33873 8.08085 8.4375 7.84239 8.4375 7.59375ZM10.7812 8.53125C11.0299 8.53125 11.2683 8.43248 11.4442 8.25666C11.62 8.08085 11.7188 7.84239 11.7188 7.59375C11.7188 7.34511 11.62 7.10665 11.4442 6.93084C11.2683 6.75502 11.0299 6.65625 10.7812 6.65625C10.5326 6.65625 10.2942 6.75502 10.1183 6.93084C9.94252 7.10665 9.84375 7.34511 9.84375 7.59375C9.84375 7.84239 9.94252 8.08085 10.1183 8.25666C10.2942 8.43248 10.5326 8.53125 10.7812 8.53125Z" fill="#36B22B"/>
</g>
<defs>
<clipPath id="clip0_7_82">
<rect width="15" height="15" fill="white" transform="translate(0 0.5)"/>
</clipPath>
</defs>
</svg>
