<svg width="15" height="14" viewBox="0 0 15 14" fill="none" xmlns="http://www.w3.org/2000/svg">
<g clip-path="url(#clip0_7_87)">
<path d="M7.49941 1.5C5.39524 1.5 3.71035 2.45833 2.48378 3.59896C1.26504 4.72917 0.449931 6.08333 0.0645142 7.01302C-0.0214233 7.21875 -0.0214233 7.44792 0.0645142 7.65365C0.449931 8.58333 1.26504 9.9375 2.48378 11.0677C3.71035 12.2083 5.39524 13.1667 7.49941 13.1667C9.60358 13.1667 11.2885 12.2083 12.515 11.0677C13.7338 9.9349 14.5489 8.58333 14.9369 7.65365C15.0228 7.44792 15.0228 7.21875 14.9369 7.01302C14.5489 6.08333 13.7338 4.72917 12.515 3.59896C11.2885 2.45833 9.60358 1.5 7.49941 1.5ZM3.74941 7.33333C3.74941 6.33877 4.1445 5.38494 4.84776 4.68168C5.55102 3.97842 6.50485 3.58333 7.49941 3.58333C8.49397 3.58333 9.4478 3.97842 10.1511 4.68168C10.8543 5.38494 11.2494 6.33877 11.2494 7.33333C11.2494 8.3279 10.8543 9.28172 10.1511 9.98498C9.4478 10.6882 8.49397 11.0833 7.49941 11.0833C6.50485 11.0833 5.55102 10.6882 4.84776 9.98498C4.1445 9.28172 3.74941 8.3279 3.74941 7.33333ZM7.49941 5.66667C7.49941 6.58594 6.75201 7.33333 5.83274 7.33333C5.64785 7.33333 5.47076 7.30208 5.3041 7.2474C5.16087 7.20052 4.9942 7.28906 4.99941 7.4401C5.00722 7.61979 5.03326 7.79948 5.08274 7.97917C5.43951 9.3125 6.81191 10.1042 8.14524 9.7474C9.47858 9.39062 10.2702 8.01823 9.91347 6.6849C9.62441 5.60417 8.66868 4.8776 7.60618 4.83333C7.45514 4.82812 7.3666 4.99219 7.41347 5.13802C7.46816 5.30469 7.49941 5.48177 7.49941 5.66667Z" fill="#384AA6"/>
</g>
<defs>
<clipPath id="clip0_7_87">
<rect width="15" height="13.3333" fill="white" transform="translate(0 0.5)"/>
</clipPath>
</defs>
</svg>
